<svg width="1920" height="1183" viewBox="0 0 1920 1183" fill="none" xmlns="http://www.w3.org/2000/svg">
<g clip-path="url(#clip0_128_905)">
<rect width="1920" height="1183" fill="#1A2229"/>
<path d="M2949.28 1860.86C2964.16 1882.25 3016.64 1869.44 3003.68 1847.55C3001.12 1843.31 2998.88 1839.07 2996.8 1834.83C2978.72 1797.17 2964.32 1758.83 2953.12 1720.18C2930.72 1642.3 2921.6 1563.14 2921.44 1484.17C2921.28 1327.72 2956.16 1172.06 2998.56 1018.07C3024.64 923.331 3051.36 820.41 2977.92 735.629C2931.68 682.295 2848.64 640.397 2825.76 581.642C2818.24 562.319 2817.76 541.913 2807.68 522.985C2797.6 504.057 2774.4 485.72 2742.4 483.255C2714.56 481.185 2688.48 491.339 2666.88 502.282C2570.08 551.278 2510.08 621.666 2440 685.746C2369.92 749.726 2278.88 812.228 2156.64 829.283C2064.32 842.099 1947.04 833.029 1896.16 882.222C1838.56 938.02 1928.64 1009.2 1920 1075.15C1910.4 1147.61 1790.24 1190.89 1709.12 1243.73C1610.4 1308.1 1563.2 1397.81 1557.6 1486.34C1552 1574.87 1585.12 1662.61 1629.92 1746.8C1671.04 1823.79 1722.56 1906.31 1681.12 1983.2C1652.96 2035.55 1582.72 2081.49 1588.64 2136.6C1593.12 2178.49 1640.32 2224.83 1599.2 2258.35C1580.48 2273.63 1548.96 2279.94 1519.68 2286.25C1490.4 2292.46 1459.04 2300.64 1444.16 2317.3C1429.28 2334.06 1444 2360.77 1475.04 2360.97C1486.72 2361.07 1497.44 2357.42 1507.68 2353.97C1580.64 2329.13 1660.96 2298.67 1679.36 2248.49C1699.68 2192.89 1634.08 2137.09 1643.2 2080.4C1655.52 2004.79 1778.72 1951.16 1748.96 1870.42C1711.04 1767.7 1641.28 1674.93 1629.44 1567.87C1617.12 1456.96 1657.28 1339.25 1776.8 1255.95C1818.56 1226.77 1868.96 1202.62 1909.92 1172.94C1950.88 1143.27 1983.04 1106.01 1977.76 1067.26C1970.4 1013.93 1894.72 962.765 1927.68 913.276C1949.6 880.251 2012.48 865.069 2070.24 862.013C2128 858.957 2187.04 864.28 2243.36 856.393C2346.72 841.803 2420.64 785.611 2470.4 727.939C2520.16 670.268 2555.52 606.879 2623.04 556.503C2641.92 542.406 2664.32 529.097 2692.8 523.773C2721.28 518.45 2756.48 523.478 2771.36 539.251C2780.8 549.306 2780.64 561.432 2782.4 572.966C2795.2 655.481 2913.44 716.898 2954.56 795.765C2990.24 863.984 2964.96 937.922 2942.88 1008.31C2862.08 1264.23 2824 1530.01 2912.64 1785.05C2920.32 1806.44 2931.2 1834.83 2949.28 1860.86Z" fill="#4E601B" fill-opacity="0.2"/>
<path d="M1309.28 887.644C1312.48 875.617 1328.48 863.294 1348 864.97C1368.64 866.745 1377.76 881.828 1379.84 894.644C1385.44 929.444 1368.96 965.328 1334.4 993.128C1282.72 1034.73 1192 1059.77 1168.48 1110.15C1145.76 1158.65 1196.16 1208.53 1196.48 1259.01C1196.8 1317.66 1129.28 1370.8 1132.16 1429.46C1133.92 1465.34 1161.92 1498.86 1169.92 1534.45C1179.52 1576.84 1160.16 1619.63 1160.32 1662.51C1160.48 1718.01 1193.12 1771.25 1225.12 1823.1L1307.04 1955.2C1320 1976 1275.68 1992.17 1252.48 1975.02C1252.32 1974.82 1252 1974.72 1251.84 1974.53C1231.52 1959.24 1219.36 1940.51 1207.36 1922.08C1168.48 1861.75 1104.16 1793.92 1092.16 1729.15C1080 1663.99 1117.44 1598.92 1099.04 1533.96C1089.12 1499.06 1063.2 1465.74 1062.4 1430.25C1061.28 1376.72 1117.44 1328.31 1123.52 1274.88C1128.8 1228.64 1095.84 1183.59 1096.32 1137.26C1096.64 1096.05 1124.64 1055.14 1172.48 1026.25C1198.72 1010.38 1230.4 998.156 1257.6 982.777C1284.8 967.398 1308.16 947.484 1310.24 924.81C1311.36 912.586 1306.24 900.263 1309.28 888.137C1309.12 887.841 1309.28 887.743 1309.28 887.644Z" fill="#4E601B" fill-opacity="0.2"/>
<path d="M1562.08 680.718C1545.92 628.567 1514.08 578.191 1468.32 533.237C1454.08 519.239 1419.36 530.378 1429.92 545.56C1470.56 604.02 1503.36 664.255 1512.48 727.348C1527.36 829.579 1476.64 934.964 1373.44 1015.61C1315.68 1060.76 1238.56 1103.34 1230.56 1160.62C1222.4 1219.28 1291.2 1277.74 1263.68 1334.13C1244.48 1373.66 1180.48 1403.93 1180.48 1445.13C1180.48 1475.4 1216.96 1501.62 1259.68 1516.61C1302.4 1531.59 1351.36 1537.8 1398.08 1546.97C1411.2 1549.53 1426.08 1553.57 1429.28 1561.86C1434.72 1576.05 1400.32 1583.74 1378.24 1578.52C1356.16 1573.29 1336.96 1561.76 1313.12 1561.95C1289.12 1562.05 1269.28 1574.87 1261.92 1588.87C1254.72 1602.97 1257.12 1618.15 1259.84 1632.84C1270.72 1693.46 1280 1754.39 1294.24 1814.72C1301.44 1844.79 1311.2 1874.56 1323.68 1903.84C1334.72 1929.87 1354.72 1952.54 1363.52 1979.06C1370.72 2000.75 1422.24 2001.24 1412.8 1977.98C1368 1866.77 1330.08 1754.59 1299.2 1641.61C1295.52 1628.4 1292.8 1613.41 1306.08 1602.87C1327.68 1585.91 1374.08 1594.09 1396.96 1610.46C1419.84 1626.82 1430.56 1648.61 1454.4 1664.48C1464.64 1671.18 1481.28 1676.9 1493.76 1671.87C1505.12 1667.34 1505.28 1657.28 1504.16 1649C1497.44 1599.81 1483.04 1542.93 1413.44 1518.48C1381.28 1507.14 1342.88 1505.27 1307.68 1498.27C1272.48 1491.27 1236.48 1475.6 1233.12 1452.92C1230.08 1431.63 1256.16 1413.59 1275.68 1395.94C1314.24 1361.04 1331.52 1317.27 1322.88 1275.37C1316.48 1243.63 1296 1212.87 1298.24 1180.93C1302.24 1126.22 1370.08 1082.84 1422.88 1038.87C1526.24 952.611 1582.4 844.465 1572.8 737.403C1571.68 718.18 1567.84 699.35 1562.08 680.718Z" fill="#4E601B" fill-opacity="0.2"/>
<path d="M716.16 725.672C707.68 726.559 698.24 731.982 693.44 737.305C652 783.343 642.4 837.268 619.52 887.94C594.56 943.344 553.12 995.988 537.6 1052.57C530.72 1077.71 528.96 1103.54 519.2 1128.29C509.44 1153.13 490.08 1177.78 456.16 1192.37C402.08 1215.63 321.92 1209.32 274.4 1237.52C245.28 1254.77 235.68 1282.37 245.12 1306.62C252.48 1325.26 269.92 1341.82 292.16 1355.13C300.64 1360.15 312.48 1369.82 324.16 1363.31C332.64 1358.58 332.16 1348.82 329.6 1342.71C319.68 1319.14 292.48 1295.19 307.68 1272.71C318.4 1256.74 347.36 1248.46 375.04 1245.3C402.72 1242.25 431.36 1242.84 458.24 1237.81C510.88 1227.76 546.88 1197.1 564 1164.86C580.8 1132.72 582.4 1098.32 588.8 1064.7C600.48 1003.97 628 944.823 655.52 886.067C671.84 851.366 688 816.566 709.44 782.949C718.72 768.26 729.28 753.374 730.56 737.601C730.88 734.347 730.56 730.7 727.04 728.235C724 725.968 720.16 725.278 716.16 725.672Z" fill="#4E601B" fill-opacity="0.2"/>
<path d="M1029.28 1860.86C1044.16 1882.25 1096.64 1869.44 1083.68 1847.55C1081.12 1843.31 1078.88 1839.07 1076.8 1834.83C1058.72 1797.17 1044.32 1758.83 1033.12 1720.18C1010.72 1642.3 1001.6 1563.14 1001.44 1484.17C1001.28 1327.72 1036.16 1172.06 1078.56 1018.07C1104.64 923.331 1131.36 820.41 1057.92 735.629C1011.68 682.295 928.64 640.397 905.76 581.642C898.24 562.319 897.76 541.913 887.68 522.985C877.599 504.057 854.4 485.72 822.4 483.255C794.56 481.185 768.479 491.339 746.88 502.282C650.079 551.278 590.08 621.666 520 685.746C449.92 749.726 358.88 812.228 236.64 829.283C144.32 842.099 27.0396 833.029 -23.8405 882.222C-81.4405 938.02 8.63953 1009.2 -0.000457764 1075.15C-9.60046 1147.61 -129.76 1190.89 -210.88 1243.73C-309.6 1308.1 -356.8 1397.81 -362.4 1486.34C-368 1574.87 -334.88 1662.61 -290.08 1746.8C-248.96 1823.79 -197.44 1906.31 -238.88 1983.2C-267.04 2035.55 -337.28 2081.49 -331.36 2136.6C-326.88 2178.49 -279.68 2224.83 -320.8 2258.35C-339.52 2273.63 -371.04 2279.94 -400.32 2286.25C-429.6 2292.56 -460.96 2300.64 -475.84 2317.3C-490.72 2333.96 -476 2360.77 -444.96 2360.97C-433.28 2361.07 -422.56 2357.42 -412.32 2353.97C-339.36 2329.13 -259.04 2298.67 -240.64 2248.49C-220.32 2192.89 -285.92 2137.09 -276.8 2080.4C-264.48 2004.79 -141.28 1951.16 -171.04 1870.42C-208.96 1767.7 -278.72 1674.93 -290.56 1567.87C-302.88 1456.96 -262.72 1339.25 -143.2 1255.95C-101.44 1226.77 -51.0404 1202.62 -10.0804 1172.94C30.8796 1143.37 63.0396 1106.01 57.7595 1067.26C50.3995 1013.93 -25.2805 962.765 7.6795 913.276C29.5995 880.251 92.4795 865.069 150.24 862.013C208 858.957 267.039 864.28 323.359 856.393C426.719 841.803 500.64 785.611 550.4 727.939C600.16 670.268 635.52 606.879 703.04 556.503C721.92 542.406 744.32 529.097 772.8 523.773C801.28 518.45 836.479 523.478 851.359 539.251C860.799 549.306 860.64 561.432 862.4 572.966C875.2 655.481 993.439 716.898 1034.56 795.765C1070.24 863.984 1044.96 937.922 1022.88 1008.31C942.079 1264.23 904 1530.01 992.64 1785.05C1000.32 1806.44 1011.2 1834.83 1029.28 1860.86Z" fill="#4E601B" fill-opacity="0.2"/>
<path d="M923.681 1196.31C910.081 1193.35 894.241 1199.46 887.361 1207.45C880.001 1215.93 879.361 1225.79 876.481 1235.25C860.801 1288.68 776.321 1330.09 777.121 1384.31C777.441 1400.08 785.121 1415.36 788.801 1430.94C792.481 1446.51 791.681 1463.57 776.961 1476.48C762.241 1489.4 729.601 1495.21 710.241 1484.96C693.601 1476.19 693.121 1460.61 694.881 1447.2C705.121 1371.1 746.241 1296.67 813.441 1232.49C816.001 1230.12 818.561 1227.66 819.041 1224.8C820.161 1218.39 809.281 1213.17 798.881 1213.17C788.481 1213.17 779.041 1216.81 771.041 1220.86C690.241 1260.78 686.721 1333.83 658.561 1395.25C583.041 1560.08 307.841 1658.57 175.681 1809.2C164.801 1821.62 148.161 1836.51 125.761 1833.45C109.281 1831.19 100.321 1819.16 102.721 1808.81C105.121 1798.46 115.681 1789.68 126.081 1781.5C179.841 1739.21 239.681 1699.68 285.441 1653.93C331.681 1607.6 363.521 1554.66 426.081 1516.11C469.761 1489.2 526.401 1470.57 563.841 1440.3C608.161 1404.42 618.881 1357.49 633.601 1313.33C660.641 1232.39 705.601 1154.12 757.121 1077.81C798.081 1017.08 843.841 949.358 805.441 888.039C797.121 874.632 783.521 861.421 762.081 855.802C740.641 850.183 710.881 855.506 704.321 869.308C698.241 882.222 713.441 894.742 722.561 906.967C748.641 941.57 726.241 981.89 706.561 1018.07C672.961 1079.68 647.681 1143.07 631.041 1207.25C614.721 1269.65 605.761 1334.42 558.241 1390.42C510.721 1446.41 410.881 1491.76 310.561 1479.05C289.761 1476.48 258.561 1475.99 257.761 1489C257.441 1493.04 261.121 1496.79 265.121 1500.04C279.681 1511.78 301.281 1520.45 310.881 1533.96C320.481 1547.46 307.041 1568.26 283.521 1566C274.241 1565.11 266.721 1560.87 260.001 1556.63C164.481 1496.99 105.601 1419.3 45.7609 1343.99C40.4809 1337.28 31.3609 1329.4 19.5209 1331.17C6.5609 1333.14 5.92088 1344.28 8.80088 1352.17C32.1609 1415.46 102.241 1467.51 153.601 1524.2C204.961 1580.88 236.961 1653.44 182.081 1708.84C148.001 1743.25 83.3609 1767.5 71.3609 1807.13C64.3209 1830.2 76.9609 1855.24 61.6009 1876.63C43.8409 1901.67 -2.87911 1911.24 -39.0391 1923.26C-56.9591 1929.28 -75.8391 1935.88 -88.4791 1946.13C-97.1191 1953.13 -119.519 1982.12 -88.4791 1981.23C-71.8391 1980.83 -45.4391 1967.92 -31.0391 1963.19C-4.79911 1954.61 21.4409 1946.04 47.6809 1937.36C97.1209 1921.19 146.401 1904.93 195.681 1888.66C215.041 1882.35 234.881 1875.75 248.641 1865.3C276.481 1844.4 273.441 1815.31 280.161 1790.08C287.841 1761.29 312.801 1742.07 342.401 1720.48C357.761 1709.24 372.161 1697.61 386.401 1685.87C415.841 1661.62 444.001 1636.68 475.361 1613.32C533.601 1570.04 608.161 1530.8 698.081 1521.63C754.401 1515.92 825.281 1518.08 852.161 1487.03C881.441 1453.02 827.041 1414.28 824.481 1375.83C820.641 1317.96 932.161 1278.63 941.281 1221.05C942.721 1211.79 939.681 1200.65 926.081 1196.6C925.121 1196.6 924.321 1196.51 923.681 1196.31Z" fill="#4E601B" fill-opacity="0.2"/>
<path d="M519.841 1267.58C517.921 1266.5 515.521 1265.61 512.801 1265.32C504.641 1264.23 496.801 1267.49 490.561 1270.94C434.721 1301.3 419.681 1350.69 378.401 1388.94C362.081 1404.02 337.601 1418.42 308.321 1417.53C287.201 1416.94 268.961 1408.36 254.401 1398.9C225.281 1379.87 206.241 1356.11 187.521 1332.75C162.081 1300.91 136.001 1267.78 134.881 1232.39C133.921 1201.34 152.161 1171.47 161.281 1140.9C171.841 1106.01 170.401 1069.73 157.121 1035.22C146.401 1007.13 130.881 972.525 166.081 953.498C193.601 938.71 238.721 944.231 265.601 959.413C302.721 980.411 312.161 1017.58 287.361 1044.59C279.041 1053.66 267.041 1064.7 276.321 1073.47C287.201 1083.92 314.241 1078.01 328.161 1069.04C362.561 1046.86 372.001 1012.25 356.321 983.172C340.481 954.09 301.921 930.725 256.321 918.304C203.681 903.911 132.481 906.277 99.2012 935.26C77.6012 953.892 76.8012 978.932 84.4812 1001.31C92.1612 1023.69 107.361 1044.88 115.201 1067.26C131.521 1113.4 115.041 1163.68 70.7213 1202.22C19.8412 1246.59 -61.5988 1273.11 -127.519 1309.19C-161.119 1327.52 -191.839 1349.8 -201.119 1376.91C-214.559 1415.95 -180.799 1454.6 -149.759 1489.59C-118.719 1524.59 -88.3188 1565.01 -108.479 1602.97C-118.879 1622.58 -141.599 1638.65 -157.919 1656.79C-201.279 1704.7 -182.559 1753.9 -172.479 1805.16C-171.519 1809.89 -170.559 1814.82 -165.919 1818.76C-152.799 1829.9 -121.119 1822.71 -112.639 1809.89C-104.159 1797.17 -109.919 1782.68 -112.799 1769.08C-120.639 1730.73 -102.239 1690.61 -62.7188 1660.54C-37.5988 1641.41 -3.03877 1624.46 3.36124 1600.11C8.96123 1578.81 -9.1188 1558.11 -26.5588 1539.38C-50.7188 1513.45 -74.8788 1487.62 -99.0388 1461.7C-117.119 1442.37 -135.679 1421.67 -135.039 1399.39C-133.919 1360.25 -76.1588 1331.86 -22.7188 1310.67C0.64119 1301.5 26.7212 1292.13 54.0812 1294.4C81.4412 1296.67 102.721 1309.98 118.881 1323.78C152.481 1352.46 173.921 1386.48 212.641 1412.6C251.201 1438.73 317.281 1455.39 366.401 1436.95C403.681 1422.95 417.601 1394.56 434.721 1369.82C453.121 1343.3 478.241 1318.65 508.961 1296.96C515.841 1292.13 523.201 1287.1 525.601 1280.89C527.361 1276.16 525.121 1270.74 519.841 1267.58Z" fill="#4E601B" fill-opacity="0.2"/>
<path d="M2949.28 677.859C2964.16 699.251 3016.64 686.436 3003.68 664.55C3001.12 660.311 2998.88 656.072 2996.8 651.833C2978.72 614.174 2964.32 575.825 2953.12 537.181C2930.72 459.3 2921.6 380.137 2921.44 301.172C2921.28 144.72 2956.16 -10.9428 2998.56 -164.93C3024.64 -259.669 3051.36 -362.59 2977.92 -447.371C2931.68 -500.705 2848.64 -542.603 2825.76 -601.358C2818.24 -620.681 2817.76 -641.087 2807.68 -660.015C2797.6 -678.943 2774.4 -697.28 2742.4 -699.745C2714.56 -701.815 2688.48 -691.661 2666.88 -680.718C2570.08 -631.722 2510.08 -561.334 2440 -497.254C2369.92 -433.175 2278.88 -370.772 2156.64 -353.717C2064.32 -340.901 1947.04 -349.971 1896.16 -300.778C1838.56 -244.98 1928.64 -173.802 1920 -107.85C1910.4 -35.3915 1790.24 7.8866 1709.12 60.7272C1610.4 125.102 1563.2 214.813 1557.6 303.341C1552 391.869 1585.12 479.608 1629.92 563.798C1671.04 640.792 1722.56 723.306 1681.12 800.201C1652.96 852.549 1582.72 898.489 1588.64 953.597C1593.12 995.495 1640.32 1041.83 1599.2 1075.35C1580.48 1090.63 1548.96 1096.94 1519.68 1103.25C1490.4 1109.46 1459.04 1117.64 1444.16 1134.3C1429.28 1151.06 1444 1177.78 1475.04 1177.97C1486.72 1178.07 1497.44 1174.42 1507.68 1170.97C1580.64 1146.13 1660.96 1115.67 1679.36 1065.49C1699.68 1009.79 1634.08 954.089 1643.2 897.404C1655.52 821.791 1778.72 768.161 1748.96 687.422C1711.04 584.698 1641.28 491.931 1629.44 384.869C1617.12 273.963 1657.28 156.255 1776.8 72.9516C1818.56 43.7709 1868.96 19.618 1909.92 -10.0555C1950.88 -39.6306 1983.04 -76.9937 1977.76 -115.737C1970.4 -169.07 1894.72 -220.235 1927.68 -269.724C1949.6 -302.749 2012.48 -317.931 2070.24 -320.987C2128 -324.043 2187.04 -318.72 2243.36 -326.607C2346.72 -341.197 2420.64 -397.389 2470.4 -455.061C2520.16 -512.732 2555.52 -576.121 2623.04 -626.497C2641.92 -640.595 2664.32 -653.903 2692.8 -659.227C2721.12 -664.55 2756.48 -659.523 2771.36 -643.749C2780.8 -633.694 2780.64 -621.568 2782.4 -610.034C2795.2 -527.519 2913.44 -466.102 2954.56 -387.235C2990.24 -319.016 2964.96 -245.078 2942.88 -174.69C2862.08 81.2326 2824 347.013 2912.64 602.048C2920.32 623.441 2931.2 651.833 2949.28 677.859Z" fill="#4E601B" fill-opacity="0.2"/>
<path d="M947.041 887.842C944.961 882.321 942.241 876.899 939.041 871.575C920.641 841.902 883.681 817.749 864.961 788.174C838.241 745.98 851.361 697.28 825.601 654.791C819.681 644.932 811.041 635.173 796.961 629.356C780.481 622.554 758.561 622.258 739.841 626.103C721.121 630.046 704.961 637.736 690.721 646.214C617.601 689.393 583.681 751.797 546.401 808.285C503.201 873.646 461.281 939.401 430.561 1007.42C414.401 1043.11 401.281 1080.18 407.361 1117.05C408.801 1125.82 413.441 1136.17 427.201 1138.74C438.081 1140.81 449.921 1136.57 456.001 1130.65C462.081 1124.84 463.841 1117.64 465.601 1110.74C482.881 1043.5 513.281 977.848 543.521 912.29C568.481 858.365 593.601 804.342 629.121 752.684C647.841 725.573 669.601 698.857 699.521 675.887C706.881 670.17 715.361 664.452 726.881 662.48C742.721 659.72 760.161 665.24 769.921 673.521C779.681 681.802 783.201 692.154 785.761 702.209C794.241 737.502 791.681 774.471 813.921 807.398C835.841 839.93 880.481 866.252 892.801 900.559C901.441 924.613 893.121 949.555 884.801 973.708C870.241 1016.1 855.681 1058.39 840.961 1100.78C836.321 1114.29 831.681 1128.48 838.081 1141.69C844.481 1154.9 866.241 1166.44 888.001 1163.28C915.041 1159.44 923.041 1138.54 925.921 1121.48C933.601 1074.66 941.281 1027.83 948.961 980.904C953.761 949.949 958.561 917.811 947.041 887.842Z" fill="#4E601B" fill-opacity="0.2"/>
<path d="M752.96 397.784C751.041 397.389 748.961 396.995 747.041 396.699C686.081 387.038 619.84 401.333 572.161 426.669C524.48 452.005 492.961 486.903 469.121 522.788C445.281 558.672 428.16 596.134 403.36 631.722C380.96 663.762 351.521 696.984 307.201 719.856C285.12 731.291 258.88 739.769 230.24 742.53C192.64 746.177 157.76 750.416 121.12 757.81C114.72 759.092 108.32 760.373 101.92 761.655C61.7604 769.837 22.4005 780.09 -13.9196 793.596C-89.7596 821.791 -153.44 867.336 -165.92 921.36C-176.64 967.3 -149.92 1013.93 -156.48 1060.17C-162.08 1099.7 -192.8 1137.65 -240.8 1164.17C-316.8 1206.17 -431.84 1219.67 -489.6 1271.53C-532.64 1310.17 -532.48 1362.13 -508.8 1406.69C-493.44 1435.77 -468 1463.57 -429.6 1482.99C-417.92 1488.9 -397.28 1492.85 -390.56 1484.57C-388.48 1482 -388.8 1478.95 -389.28 1476.09C-399.36 1420.88 -496.8 1376.81 -480 1322.2C-467.68 1282.17 -400.16 1259.7 -341.92 1240.57C-283.2 1221.25 -225.92 1199.36 -179.68 1169.99C-133.44 1140.61 -98.7196 1102.75 -93.1196 1061.94C-87.9996 1025.17 -106.24 988.594 -104.96 951.724C-102.4 881.039 -19.8396 814.101 90.0804 793.694C156.48 781.372 229.44 784.625 292.96 767.471C391.04 740.854 437.6 676.085 471.68 617.723C495.68 576.713 517.12 534.519 555.681 497.944C594.24 461.37 653.76 430.514 724 425.19C734.72 424.401 745.92 424.106 755.36 420.754C764.8 417.501 771.361 409.91 766.241 404.093C763.521 400.84 758.401 398.967 752.96 397.784Z" fill="#4E601B" fill-opacity="0.2"/>
<path d="M2673.28 397.784C2671.36 397.389 2669.28 396.995 2667.36 396.699C2606.4 387.038 2540.16 401.333 2492.48 426.669C2444.8 452.005 2413.28 486.903 2389.44 522.788C2365.6 558.672 2348.48 596.134 2323.68 631.722C2301.28 663.762 2271.84 696.984 2227.52 719.856C2205.44 731.291 2179.2 739.769 2150.56 742.53C2112.96 746.177 2078.08 750.416 2041.44 757.81C2035.04 759.092 2028.64 760.373 2022.24 761.655C1982.08 769.837 1942.72 780.09 1906.4 793.596C1830.56 821.791 1766.88 867.336 1754.4 921.36C1743.68 967.3 1770.4 1013.93 1763.84 1060.17C1758.24 1099.7 1727.52 1137.65 1679.52 1164.17C1603.52 1206.17 1488.32 1219.57 1430.56 1271.43C1387.52 1310.07 1387.68 1362.03 1411.36 1406.59C1426.72 1435.67 1452.16 1463.47 1490.56 1482.89C1502.24 1488.81 1522.88 1492.75 1529.6 1484.47C1531.68 1481.9 1531.36 1478.85 1530.88 1475.99C1520.8 1420.78 1423.36 1376.72 1440.16 1322.1C1452.48 1282.08 1520 1259.6 1578.24 1240.47C1636.96 1221.15 1694.24 1199.27 1740.48 1169.89C1786.72 1140.51 1821.44 1102.65 1827.04 1061.84C1832.16 1025.07 1813.92 988.495 1815.2 951.625C1817.76 880.941 1900.32 814.003 2010.24 793.596C2076.64 781.273 2149.6 784.526 2213.12 767.373C2311.2 740.755 2357.76 675.986 2391.84 617.625C2415.84 576.614 2437.28 534.42 2475.84 497.846C2514.4 461.271 2573.92 430.415 2644.16 425.091C2654.88 424.303 2666.08 424.007 2675.52 420.655C2684.96 417.402 2691.52 409.811 2686.4 403.995C2683.84 400.84 2678.72 398.967 2673.28 397.784Z" fill="#4E601B" fill-opacity="0.2"/>
<path d="M2673.28 -785.512C2671.36 -785.906 2669.28 -786.301 2667.36 -786.596C2606.4 -796.258 2540.16 -781.963 2492.48 -756.627C2444.8 -731.291 2413.28 -696.393 2389.44 -660.508C2365.6 -624.624 2348.48 -587.162 2323.68 -551.574C2301.28 -519.534 2271.84 -486.312 2227.52 -463.44C2205.44 -452.005 2179.2 -443.526 2150.56 -440.766C2112.96 -437.118 2078.08 -432.879 2041.44 -425.486C2035.04 -424.204 2028.64 -422.922 2022.24 -421.641C1982.08 -413.458 1942.72 -403.206 1906.4 -389.7C1830.56 -361.505 1766.88 -315.96 1754.4 -261.936C1743.68 -215.996 1770.4 -169.366 1763.84 -123.13C1758.24 -83.5986 1727.52 -45.644 1679.52 -19.1251C1603.52 22.8714 1488.32 36.2788 1430.56 88.1337C1387.52 126.778 1387.68 178.732 1411.36 223.291C1426.72 252.373 1452.16 280.174 1490.56 299.595C1502.24 305.51 1522.88 309.453 1529.6 301.172C1531.68 298.609 1531.36 295.553 1530.88 292.694C1520.8 237.487 1423.36 193.421 1440.16 138.805C1452.48 98.7806 1520 76.3036 1578.24 57.1785C1636.96 37.8561 1694.24 15.9706 1740.48 -13.4072C1786.72 -42.785 1821.44 -80.6411 1827.04 -121.455C1832.16 -158.226 1813.92 -194.801 1815.2 -231.671C1817.76 -302.355 1900.32 -369.293 2010.24 -389.7C2076.64 -402.023 2149.6 -398.77 2213.12 -415.923C2311.2 -442.54 2357.76 -507.31 2391.84 -565.671C2415.84 -606.682 2437.28 -648.875 2475.84 -685.45C2514.4 -722.024 2573.92 -752.881 2644.16 -758.204C2654.88 -758.993 2666.08 -759.289 2675.52 -762.641C2684.96 -765.992 2691.52 -773.485 2686.4 -779.301C2683.84 -782.456 2678.72 -784.329 2673.28 -785.512Z" fill="#4E601B" fill-opacity="0.2"/>
<path d="M1029.28 677.859C1044.16 699.251 1096.64 686.436 1083.68 664.55C1081.12 660.311 1078.88 656.072 1076.8 651.833C1058.72 614.174 1044.32 575.825 1033.12 537.181C1010.72 459.3 1001.6 380.137 1001.44 301.172C1001.28 144.72 1036.16 -10.9428 1078.56 -164.93C1104.64 -259.669 1131.36 -362.59 1057.92 -447.371C1011.68 -500.705 928.64 -542.603 905.76 -601.358C898.24 -620.681 897.76 -641.087 887.68 -660.015C877.599 -678.943 854.4 -697.28 822.4 -699.745C794.56 -701.815 768.479 -691.661 746.88 -680.718C650.079 -631.722 590.08 -561.334 520 -497.254C449.92 -433.274 358.88 -370.772 236.64 -353.717C144.32 -340.901 27.0396 -349.971 -23.8405 -300.778C-81.4405 -244.98 8.63953 -173.802 -0.000457764 -107.85C-9.60046 -35.3915 -129.76 7.8866 -210.88 60.7272C-309.6 125.102 -356.8 214.813 -362.4 303.341C-368 391.869 -334.88 479.608 -290.08 563.798C-248.96 640.792 -197.44 723.306 -238.88 800.201C-267.04 852.549 -337.28 898.489 -331.36 953.597C-326.88 995.495 -279.68 1041.83 -320.8 1075.35C-339.52 1090.63 -371.04 1096.94 -400.32 1103.25C-429.6 1109.56 -460.96 1117.64 -475.84 1134.3C-490.72 1151.06 -476 1177.78 -444.96 1177.97C-433.28 1178.07 -422.56 1174.42 -412.32 1170.97C-339.36 1146.13 -259.04 1115.67 -240.64 1065.49C-220.32 1009.79 -285.92 954.089 -276.8 897.404C-264.48 821.791 -141.28 768.161 -171.04 687.422C-208.96 584.698 -278.72 491.931 -290.56 384.869C-302.88 273.963 -262.72 156.255 -143.2 72.9516C-101.44 43.7709 -51.0404 19.618 -10.0804 -10.0555C30.8796 -39.6306 63.0396 -76.9937 57.7595 -115.737C50.3995 -169.07 -25.2805 -220.235 7.6795 -269.724C29.5995 -302.749 92.4795 -317.931 150.24 -320.987C208 -324.043 267.039 -318.72 323.359 -326.607C426.719 -341.197 500.64 -397.389 550.4 -455.061C600.16 -512.732 635.52 -576.121 703.04 -626.497C721.92 -640.595 744.32 -653.903 772.8 -659.227C801.12 -664.55 836.479 -659.523 851.359 -643.749C860.799 -633.694 860.64 -621.568 862.4 -610.034C875.2 -527.519 993.439 -466.102 1034.56 -387.235C1070.24 -319.016 1044.96 -245.078 1022.88 -174.69C942.079 81.2326 904 347.013 992.64 602.048C1000.32 623.441 1011.2 651.833 1029.28 677.859Z" fill="#4E601B" fill-opacity="0.2"/>
<path d="M716.16 725.672C707.68 726.559 698.24 731.982 693.44 737.305C652 783.343 642.4 837.268 619.52 887.94C594.56 943.344 553.12 995.988 537.6 1052.57C530.72 1077.71 528.96 1103.54 519.2 1128.29C509.44 1153.13 490.08 1177.78 456.16 1192.37C402.08 1215.63 321.92 1209.32 274.4 1237.52C245.28 1254.77 235.68 1282.37 245.12 1306.62C252.48 1325.26 269.92 1341.82 292.16 1355.13C300.64 1360.15 312.48 1369.82 324.16 1363.31C332.64 1358.58 332.16 1348.82 329.6 1342.71C319.68 1319.14 292.48 1295.19 307.68 1272.71C318.4 1256.74 347.36 1248.46 375.04 1245.3C402.72 1242.25 431.36 1242.84 458.24 1237.81C510.88 1227.76 546.88 1197.1 564 1164.86C580.8 1132.72 582.4 1098.32 588.8 1064.7C600.48 1003.97 628 944.823 655.52 886.067C671.84 851.366 688 816.566 709.44 782.949C718.72 768.26 729.28 753.374 730.56 737.601C730.88 734.347 730.56 730.7 727.04 728.235C724 725.968 720.16 725.278 716.16 725.672Z" fill="#4E601B" fill-opacity="0.2"/>
<path d="M2843.68 13.3087C2830.08 10.3512 2814.24 16.4634 2807.36 24.4486C2800 32.9268 2799.36 42.7852 2796.48 52.2491C2780.8 105.681 2696.32 147.086 2697.12 201.307C2697.44 217.081 2705.12 232.361 2708.8 247.937C2712.48 263.513 2711.68 280.568 2696.96 293.482C2682.24 306.298 2649.6 312.213 2630.24 301.961C2613.6 293.187 2613.12 277.611 2614.88 264.203C2625.12 188.097 2666.24 113.667 2733.44 49.4888C2736 47.1228 2738.56 44.6583 2739.04 41.7993C2740.16 35.3914 2729.28 30.1665 2718.88 30.1665C2708.48 30.1665 2699.04 33.8141 2691.04 37.856C2610.24 77.7823 2606.72 150.832 2578.56 212.25C2503.04 377.081 2227.84 475.566 2095.68 626.201C2084.8 638.623 2068.16 653.509 2045.76 650.453C2029.28 648.185 2020.32 636.158 2022.72 625.807C2025.12 615.456 2035.68 606.682 2046.08 598.499C2099.84 556.207 2159.68 516.675 2205.44 470.932C2251.68 424.598 2283.52 371.659 2346.08 333.113C2389.76 306.2 2446.4 287.568 2483.84 257.302C2528.16 221.418 2538.88 174.492 2553.6 130.327C2580.64 49.3903 2625.6 -28.8849 2677.12 -105.188C2718.08 -165.916 2763.84 -233.643 2725.44 -294.961C2717.12 -308.369 2703.52 -321.579 2682.08 -327.198C2660.64 -332.817 2630.88 -327.494 2624.32 -313.692C2618.24 -300.778 2633.44 -288.258 2642.56 -276.033C2668.64 -241.431 2646.24 -201.11 2626.56 -164.93C2592.96 -103.315 2567.68 -39.9263 2551.04 24.2515C2534.72 86.6547 2525.76 151.424 2478.24 207.419C2430.72 263.415 2330.88 308.763 2230.56 296.046C2209.76 293.483 2178.56 292.99 2177.76 306.003C2177.44 310.045 2181.12 313.791 2185.12 317.044C2199.68 328.775 2221.28 337.451 2230.88 350.957C2240.48 364.463 2227.04 385.264 2203.52 382.996C2194.24 382.109 2186.72 377.87 2180 373.631C2084.48 313.988 2025.6 236.304 1965.76 160.987C1960.48 154.283 1951.36 146.396 1939.52 148.171C1926.56 150.142 1925.92 161.282 1928.8 169.169C1952.16 232.459 2022.24 284.511 2073.6 341.197C2124.96 397.882 2156.96 470.44 2102.08 525.844C2068 560.249 2003.36 584.5 1991.36 624.131C1984.32 647.2 1996.96 672.24 1981.6 693.632C1963.84 718.672 1917.12 728.235 1880.96 740.262C1863.04 746.276 1844.16 752.881 1831.52 763.134C1822.88 770.133 1800.48 799.116 1831.52 798.229C1848.16 797.835 1874.56 784.921 1888.96 780.188C1915.2 771.612 1941.44 763.035 1967.68 754.36C2017.12 738.192 2066.4 721.926 2115.84 705.66C2135.2 699.35 2155.04 692.745 2168.8 682.295C2196.64 661.396 2193.6 632.313 2200.32 607.076C2208 578.29 2232.96 559.066 2262.56 537.476C2277.92 526.238 2292.32 514.605 2306.56 502.874C2336 478.622 2364.16 453.68 2395.52 430.316C2453.76 387.038 2528.32 347.802 2618.24 338.634C2674.56 332.916 2745.44 335.085 2772.32 304.031C2801.6 270.02 2747.2 231.276 2744.64 192.829C2740.8 134.961 2852.32 95.6258 2861.44 38.0531C2862.88 28.7863 2859.84 17.6464 2846.24 13.6045C2845.12 13.6045 2844.32 13.5059 2843.68 13.3087Z" fill="#4E601B" fill-opacity="0.2"/>
<path d="M1309.28 -295.356C1312.48 -307.383 1328.48 -319.706 1348 -318.03C1368.64 -316.255 1377.76 -301.172 1379.84 -288.356C1385.44 -253.556 1368.96 -217.672 1334.4 -189.872C1282.72 -148.269 1192 -123.229 1168.48 -72.8532C1145.76 -24.3502 1196.16 25.533 1196.48 76.0077C1196.8 134.665 1129.28 187.801 1132.16 246.458C1133.92 282.343 1161.92 315.861 1169.92 351.45C1179.52 393.84 1160.16 436.626 1160.32 479.509C1160.48 535.012 1193.12 588.247 1225.12 640.102L1307.04 772.203C1320 793.004 1275.68 809.172 1252.48 792.018C1252.32 791.821 1252 791.723 1251.84 791.526C1231.52 776.245 1219.36 757.514 1207.36 739.079C1168.48 678.746 1104.16 610.921 1092.16 546.152C1080 480.988 1117.44 415.923 1099.04 350.957C1089.12 316.058 1063.2 282.737 1062.4 247.247C1061.28 193.716 1117.44 145.312 1123.52 91.8796C1128.8 45.644 1095.84 0.591431 1096.32 -45.7427C1096.64 -86.9506 1124.64 -127.863 1172.48 -156.748C1198.72 -172.619 1230.4 -184.844 1257.6 -200.223C1284.8 -215.602 1308.16 -235.516 1310.24 -258.19C1311.36 -270.414 1306.24 -282.737 1309.28 -294.863C1309.12 -295.159 1309.28 -295.257 1309.28 -295.356Z" fill="#4E601B" fill-opacity="0.2"/>
<path d="M2439.84 84.5845C2437.92 83.5001 2435.52 82.6128 2432.8 82.3171C2424.64 81.2327 2416.8 84.4859 2410.56 87.9363C2354.72 118.3 2339.68 167.69 2298.4 205.941C2282.08 221.024 2257.6 235.417 2228.32 234.53C2207.2 233.938 2188.96 225.362 2174.4 215.897C2145.28 196.871 2126.24 173.112 2107.52 149.748C2082.08 117.906 2056 84.7816 2054.88 49.3902C2053.92 18.3365 2072.16 -11.5343 2081.28 -42.0951C2091.84 -76.9936 2090.4 -113.272 2077.12 -147.776C2066.4 -175.873 2050.88 -210.475 2086.08 -229.502C2113.6 -244.289 2158.72 -238.769 2185.6 -223.587C2222.72 -202.589 2232.16 -165.423 2207.36 -138.411C2199.04 -129.341 2187.04 -118.3 2196.32 -109.526C2207.2 -99.0762 2234.24 -104.991 2248.16 -113.962C2282.56 -136.144 2292 -170.746 2276.32 -199.828C2260.48 -228.911 2221.92 -252.275 2176.32 -264.696C2123.68 -279.089 2052.48 -276.723 2019.2 -247.74C1997.6 -229.108 1996.8 -204.067 2004.48 -181.689C2012.16 -159.311 2027.36 -138.115 2035.2 -115.737C2051.52 -69.5999 2035.04 -19.3223 1990.72 19.2238C1939.84 63.5862 1858.4 90.1052 1792.48 126.187C1758.88 144.523 1728.16 166.803 1718.88 193.913C1705.44 232.952 1739.2 271.597 1770.24 306.594C1801.28 341.591 1831.68 382.01 1811.52 419.965C1801.12 439.583 1778.4 455.652 1762.08 473.792C1718.72 521.703 1737.44 570.896 1747.52 622.159C1748.48 626.891 1749.44 631.821 1754.08 635.764C1767.2 646.904 1798.88 639.707 1807.36 626.891C1815.84 614.174 1810.08 599.682 1807.2 586.078C1799.36 547.729 1817.76 507.606 1857.28 477.538C1882.4 458.413 1916.96 441.456 1923.36 417.106C1928.96 395.812 1910.88 375.11 1893.44 356.379C1869.28 330.451 1845.12 304.622 1820.96 278.695C1802.88 259.373 1784.32 238.67 1784.96 216.39C1786.08 177.253 1843.84 148.861 1897.28 127.665C1920.64 118.497 1946.72 109.132 1974.08 111.399C2001.44 113.667 2022.72 126.975 2038.88 140.777C2072.48 169.465 2093.92 203.476 2132.64 229.601C2171.2 255.725 2237.28 272.386 2286.4 253.951C2323.68 239.952 2337.6 211.56 2354.72 186.815C2373.12 160.297 2398.24 135.651 2428.96 113.962C2435.84 109.132 2443.2 104.104 2445.6 97.8932C2447.36 93.1612 2445.12 87.7392 2439.84 84.5845Z" fill="#4E601B" fill-opacity="0.2"/>
<path d="M1856.64 718.18C1824.96 717.785 1850.56 686.042 1856 677.958C1870.08 656.762 1880.96 634.68 1888.48 612.203C1897.92 583.811 1902.88 553.25 1932 530.477C1952.64 514.309 1984 503.465 2000.32 485.425C2014.4 469.75 2014.88 450.625 2007.84 433.274C2000.96 415.923 1987.2 399.953 1973.76 384.179C1953.76 360.717 1934.24 337.057 1915.04 313.397C1908.32 305.116 1904 292.3 1918.08 288.849C1926.56 286.779 1935.84 290.229 1942.4 293.976C1960 304.031 1971.04 317.537 1981.6 330.747C2002.24 356.773 2021.76 383.095 2037.76 410.304C2051.2 433.175 2061.92 458.117 2052.32 481.678C2041.6 507.803 2008 527.52 1985.44 550.588C1940 596.922 1939.68 655.974 1894.08 702.209C1887.36 709.11 1878.4 716.11 1865.6 717.687C1862.08 718.081 1859.2 718.18 1856.64 718.18Z" fill="#4E601B" fill-opacity="0.2"/>
<path d="M1562.08 -502.282C1545.92 -554.433 1514.08 -604.809 1468.32 -649.763C1454.08 -663.762 1419.36 -652.622 1429.92 -637.44C1470.56 -578.98 1503.36 -518.746 1512.48 -455.652C1527.36 -353.421 1476.64 -248.036 1373.44 -167.395C1315.68 -122.243 1238.56 -79.6553 1230.56 -22.3784C1222.4 36.2786 1291.2 94.7386 1263.68 151.128C1244.48 190.66 1180.48 220.925 1180.48 262.133C1180.48 292.398 1216.96 318.621 1259.68 333.606C1302.4 348.591 1351.36 354.801 1398.08 363.97C1411.2 366.533 1426.08 370.575 1429.28 378.856C1434.72 393.052 1400.32 400.741 1378.24 395.516C1356.16 390.291 1336.96 378.757 1313.12 378.954C1289.12 379.053 1269.28 391.869 1261.92 405.868C1254.72 419.965 1257.12 435.147 1259.84 449.836C1270.72 510.465 1280 571.389 1294.24 631.722C1301.44 661.79 1311.2 691.562 1323.68 720.841C1334.72 746.867 1354.72 769.542 1363.52 796.06C1370.72 817.749 1422.24 818.242 1412.8 794.976C1368 683.774 1330.08 571.586 1299.2 458.61C1295.52 445.399 1292.8 430.415 1306.08 419.866C1327.68 402.91 1374.08 411.093 1396.96 427.457C1419.84 443.822 1430.56 465.609 1454.4 481.481C1464.64 488.185 1481.28 493.903 1493.76 488.875C1505.12 484.34 1505.28 474.284 1504.16 466.003C1497.44 416.81 1483.04 359.928 1413.44 335.479C1381.28 324.142 1342.88 322.269 1307.68 315.27C1272.48 308.27 1236.48 292.595 1233.12 269.921C1230.08 248.627 1256.16 230.586 1275.68 212.94C1314.24 178.042 1331.52 134.271 1322.88 92.3726C1316.48 60.6288 1296 29.8708 1298.24 -2.07025C1302.24 -56.784 1370.08 -100.161 1422.88 -144.129C1526.24 -230.389 1582.4 -338.535 1572.8 -445.597C1571.68 -464.82 1567.84 -483.65 1562.08 -502.282Z" fill="#4E601B" fill-opacity="0.2"/>
<path d="M716.16 -457.328C707.68 -456.441 698.24 -451.019 693.44 -445.695C652 -399.657 642.4 -345.732 619.52 -295.06C594.56 -239.656 553.12 -187.013 537.6 -130.426C530.72 -105.287 528.96 -79.4582 519.2 -54.7138C509.44 -29.8708 490.08 -5.22495 456.16 9.36539C402.08 32.6311 321.92 26.3217 274.4 54.5165C245.28 71.7686 235.68 99.3719 245.12 123.623C252.48 142.256 269.92 158.818 292.16 172.126C300.64 177.154 312.48 186.815 324.16 180.309C332.64 175.577 332.16 165.817 329.6 159.705C319.68 136.144 292.48 112.188 307.68 89.7108C318.4 73.7403 347.36 65.4593 375.04 62.3046C402.72 59.2485 431.36 59.84 458.24 54.8123C510.88 44.7567 546.88 14.0974 564 -18.1394C580.8 -50.2776 582.4 -84.6831 588.8 -118.3C600.48 -179.027 628 -238.177 655.52 -296.933C671.84 -331.634 688 -366.434 709.44 -400.051C718.72 -414.74 729.28 -429.626 730.56 -445.4C730.88 -448.653 730.56 -452.3 727.04 -454.765C724 -457.032 720.16 -457.722 716.16 -457.328Z" fill="#4E601B" fill-opacity="0.2"/>
<path d="M923.681 13.3087C910.081 10.3512 894.241 16.4634 887.361 24.4486C880.001 32.9268 879.361 42.7852 876.481 52.2491C860.801 105.681 776.321 147.086 777.121 201.307C777.441 217.081 785.121 232.361 788.801 247.937C792.481 263.513 791.681 280.568 776.961 293.482C762.241 306.397 729.601 312.213 710.241 301.961C693.601 293.187 693.121 277.611 694.881 264.203C705.121 188.097 746.241 113.667 813.441 49.4888C816.001 47.1228 818.561 44.6583 819.041 41.7993C820.161 35.3914 809.281 30.1665 798.881 30.1665C788.481 30.1665 779.041 33.8141 771.041 37.856C690.241 77.7823 686.721 150.832 658.561 212.25C583.041 377.081 307.841 475.566 175.681 626.201C164.801 638.623 148.161 653.509 125.761 650.453C109.281 648.185 100.321 636.158 102.721 625.807C105.121 615.456 115.681 606.682 126.081 598.499C179.841 556.207 239.681 516.675 285.441 470.932C331.681 424.598 363.521 371.659 426.081 333.113C469.761 306.2 526.401 287.568 563.841 257.302C608.161 221.418 618.881 174.492 633.601 130.327C660.641 49.3903 705.601 -28.8849 757.121 -105.188C798.081 -165.916 843.841 -233.643 805.441 -294.961C797.121 -308.369 783.521 -321.579 762.081 -327.198C740.641 -332.817 710.881 -327.494 704.321 -313.692C698.241 -300.778 713.441 -288.258 722.561 -276.033C748.641 -241.431 726.241 -201.11 706.561 -164.93C672.961 -103.315 647.681 -39.9263 631.041 24.2515C614.721 86.6547 605.761 151.424 558.241 207.419C510.721 263.415 410.881 308.763 310.561 296.046C289.761 293.483 258.561 292.99 257.761 306.003C257.441 310.045 261.121 313.791 265.121 317.044C279.681 328.775 301.281 337.451 310.881 350.957C320.481 364.463 307.041 385.264 283.521 382.996C274.241 382.109 266.721 377.87 260.001 373.631C164.481 313.988 105.601 236.304 45.7609 160.987C40.4809 154.283 31.3609 146.396 19.5209 148.171C6.5609 150.142 5.92088 161.282 8.80088 169.169C32.1609 232.459 102.241 284.511 153.601 341.197C204.961 397.882 236.961 470.44 182.081 525.844C148.001 560.249 83.3609 584.5 71.3609 624.131C64.3209 647.2 76.9609 672.24 61.6009 693.632C43.8409 718.672 -2.87911 728.235 -39.0391 740.262C-56.9591 746.276 -75.8391 752.881 -88.4791 763.134C-97.1191 770.133 -119.519 799.116 -88.4791 798.229C-71.8391 797.835 -45.4391 784.921 -31.0391 780.188C-4.79911 771.612 21.4409 763.035 47.6809 754.36C97.1209 738.192 146.401 721.926 195.681 705.66C215.041 699.35 234.881 692.745 248.641 682.295C276.481 661.396 273.441 632.313 280.161 607.076C287.841 578.29 312.801 559.066 342.401 537.476C357.761 526.238 372.161 514.605 386.401 502.874C415.841 478.622 444.001 453.68 475.361 430.316C533.601 387.038 608.161 347.802 698.081 338.634C754.401 332.916 825.281 335.085 852.161 304.031C881.441 270.02 827.041 231.276 824.481 192.829C820.641 134.961 932.161 95.6258 941.281 38.0531C942.721 28.7863 939.681 17.6464 926.081 13.6045C925.121 13.6045 924.321 13.5059 923.681 13.3087Z" fill="#4E601B" fill-opacity="0.2"/>
<path d="M519.841 84.5845C517.921 83.5001 515.521 82.6128 512.801 82.3171C504.641 81.2327 496.801 84.4859 490.561 87.9363C434.721 118.3 419.681 167.69 378.401 205.941C362.081 221.024 337.601 235.417 308.321 234.53C287.201 233.938 268.961 225.362 254.401 215.897C225.281 196.871 206.241 173.112 187.521 149.748C162.081 117.906 136.001 84.7816 134.881 49.3902C133.921 18.3365 152.161 -11.5343 161.281 -42.0951C171.841 -76.9936 170.401 -113.272 157.121 -147.776C146.401 -175.873 130.881 -210.475 166.081 -229.502C193.601 -244.289 238.721 -238.769 265.601 -223.587C302.721 -202.589 312.161 -165.423 287.361 -138.411C279.041 -129.341 267.041 -118.3 276.321 -109.526C287.201 -99.0762 314.241 -104.991 328.161 -113.962C362.561 -136.144 372.001 -170.746 356.321 -199.828C340.481 -228.911 301.921 -252.275 256.321 -264.696C203.681 -279.089 132.481 -276.723 99.2012 -247.74C77.6012 -229.108 76.8012 -204.067 84.4812 -181.689C92.1612 -159.311 107.361 -138.115 115.201 -115.737C131.521 -69.5999 115.041 -19.3223 70.7213 19.2238C19.8412 63.5862 -61.5988 90.1052 -127.519 126.187C-161.119 144.523 -191.839 166.803 -201.119 193.913C-214.559 232.952 -180.799 271.597 -149.759 306.594C-118.719 341.591 -88.3188 382.01 -108.479 419.965C-118.879 439.583 -141.599 455.652 -157.919 473.792C-201.279 521.703 -182.559 570.896 -172.479 622.159C-171.519 626.891 -170.559 631.821 -165.919 635.764C-152.799 646.904 -121.119 639.707 -112.639 626.891C-104.159 614.174 -109.919 599.682 -112.799 586.078C-120.639 547.729 -102.239 507.606 -62.7188 477.538C-37.5988 458.413 -3.03877 441.456 3.36124 417.106C8.96123 395.812 -9.1188 375.11 -26.5588 356.379C-50.7188 330.451 -74.8788 304.622 -99.0388 278.695C-117.119 259.373 -135.679 238.67 -135.039 216.39C-133.919 177.253 -76.1588 148.861 -22.7188 127.665C0.64119 118.497 26.7212 109.132 54.0812 111.399C81.4412 113.667 102.721 126.975 118.881 140.777C152.481 169.465 173.921 203.476 212.641 229.601C251.201 255.725 317.281 272.386 366.401 253.951C403.681 239.952 417.601 211.56 434.721 186.815C453.121 160.297 478.241 135.651 508.961 113.962C515.841 109.132 523.201 104.104 525.601 97.8932C527.361 93.1612 525.121 87.7392 519.841 84.5845Z" fill="#4E601B" fill-opacity="0.2"/>
<path d="M-63.3591 718.18C-95.0391 717.785 -69.4391 686.042 -63.9991 677.958C-49.9191 656.762 -39.0391 634.68 -31.5191 612.203C-22.0791 583.811 -17.1191 553.25 12.0009 530.477C32.6409 514.309 64.0009 503.465 80.3209 485.425C94.4009 469.75 94.8809 450.625 87.8409 433.274C80.9609 415.923 67.2009 399.953 53.7609 384.179C33.7609 360.717 14.2409 337.057 -4.95911 313.397C-11.6791 305.116 -15.9991 292.3 -1.91913 288.849C6.56087 286.779 15.8409 290.229 22.4009 293.976C40.0009 304.031 51.0409 317.537 61.6009 330.747C82.2409 356.773 101.761 383.095 117.761 410.304C131.201 433.175 141.921 458.117 132.321 481.678C121.601 507.803 88.0009 527.52 65.4409 550.588C20.0009 596.922 19.6809 655.974 -25.9191 702.209C-32.6391 709.11 -41.5991 716.11 -54.3991 717.687C-57.9191 718.081 -60.7991 718.18 -63.3591 718.18Z" fill="#4E601B" fill-opacity="0.2"/>
</g>
<defs>
<clipPath id="clip0_128_905">
<rect width="1920" height="1183" fill="white"/>
</clipPath>
</defs>
</svg>
