<svg width="36" height="36" viewBox="0 0 36 36" fill="none" xmlns="http://www.w3.org/2000/svg">
<rect width="36" height="36" rx="5" fill="white"/>
<path d="M14.7334 22.2L26.0334 10.9C26.3001 10.6333 26.6112 10.5 26.9667 10.5C27.3223 10.5 27.6334 10.6333 27.9001 10.9C28.1667 11.1667 28.3001 11.4836 28.3001 11.8507C28.3001 12.2178 28.1667 12.5342 27.9001 12.8L15.6667 25.0667C15.4001 25.3333 15.089 25.4667 14.7334 25.4667C14.3779 25.4667 14.0667 25.3333 13.8001 25.0667L8.06674 19.3333C7.80008 19.0667 7.67208 18.7502 7.68274 18.384C7.69341 18.0178 7.83252 17.7009 8.10008 17.4333C8.36763 17.1658 8.68452 17.0324 9.05074 17.0333C9.41697 17.0342 9.73341 17.1676 10.0001 17.4333L14.7334 22.2Z" fill="#68762F"/>
</svg>
