<svg width="34" height="34" viewBox="0 0 34 34" fill="none" xmlns="http://www.w3.org/2000/svg">
<path fill-rule="evenodd" clip-rule="evenodd" d="M8.12187 2.89434C9.84595 1.18018 12.685 1.48476 14.1285 3.41426L15.9164 5.79993C17.0922 7.36959 16.9874 9.56259 15.592 10.9495L15.2548 11.2867C15.2166 11.4282 15.2127 11.5768 15.2435 11.7202C15.3327 12.2982 15.8158 13.5222 17.8388 15.5338C19.8618 17.5455 21.0943 18.0272 21.6808 18.1178C21.8286 18.1476 21.9812 18.1432 22.127 18.1051L22.705 17.5299C23.946 16.2974 25.85 16.0665 27.3857 16.9009L30.0915 18.3743C32.4106 19.6323 32.9957 22.7829 31.0974 24.6713L29.0843 26.6717C28.4496 27.3021 27.5968 27.8277 26.557 27.9254C23.9928 28.1648 18.0187 27.8588 11.7386 21.6156C5.87787 15.7874 4.75304 10.7044 4.60995 8.19976C4.53912 6.93326 5.13695 5.86226 5.89912 5.10576L8.12187 2.89434ZM12.4285 4.68784C11.7103 3.72876 10.373 3.65226 9.61929 4.40168L7.39512 6.61168C6.92762 7.07634 6.70379 7.58918 6.73212 8.07934C6.84545 10.0698 7.75212 14.6555 13.2375 20.1097C18.992 25.8302 24.3059 26.0016 26.36 25.8089C26.7794 25.7707 27.1959 25.5525 27.5855 25.1658L29.5971 23.164C30.416 22.3508 30.236 20.869 29.0772 20.24L26.3714 18.7681C25.6234 18.3629 24.7479 18.4961 24.2039 19.0373L23.5593 19.679L22.8085 18.9253C23.5593 19.679 23.5579 19.6804 23.5565 19.6804L23.555 19.6833L23.5508 19.6875L23.5409 19.696L23.5196 19.7158C23.4598 19.7714 23.3954 19.8216 23.327 19.866C23.2136 19.9411 23.0635 20.0247 22.875 20.0941C22.4925 20.2372 21.9854 20.3137 21.3592 20.2173C20.131 20.0289 18.5032 19.1917 16.34 17.0412C14.1781 14.8907 13.3338 13.2728 13.144 12.046C13.0462 11.4198 13.1241 10.9127 13.2686 10.5302C13.3481 10.3149 13.462 10.114 13.6058 9.93518L13.6511 9.88559L13.671 9.86434L13.6795 9.85584L13.6837 9.85159L13.6865 9.84876L14.0945 9.44359C14.7009 8.83868 14.7859 7.83709 14.215 7.07351L12.4285 4.68784Z" fill="#697B22" fill-opacity="0.8"/>
</svg>
